<svg height="556pt" viewBox="0.00 0.00 226.00 556.00" width="226pt" xmlns="http://www.w3.org/2000/svg" xmlns:xlink="http://www.w3.org/1999/xlink">
<g class="graph" id="graph0" transform="scale(1 1) rotate(0) translate(4 552)">
<title>G</title>
<polygon fill="#ffffff" points="-4,4 -4,-552 222,-552 222,4 -4,4" stroke="transparent"/>
<!-- 4999873704 -->
<g class="node" id="node1">
<title>4999873704</title>
<polygon fill="none" points="44.5,-511.5 44.5,-547.5 173.5,-547.5 173.5,-511.5 44.5,-511.5" stroke="#000000"/>
<text fill="#000000" font-family="Times,serif" font-size="14.00" text-anchor="middle" x="109" y="-525.8">input_1: InputLayer</text>
</g>
<!-- 4999876448 -->
<g class="node" id="node2">
<title>4999876448</title>
<polygon fill="none" points="0,-438.5 0,-474.5 218,-474.5 218,-438.5 0,-438.5" stroke="#000000"/>
<text fill="#000000" font-family="Times,serif" font-size="14.00" text-anchor="middle" x="109" y="-452.8">zero_padding2d_1: ZeroPadding2D</text>
</g>
<!-- 4999873704&#45;&gt;4999876448 -->
<g class="edge" id="edge1">
<title>4999873704-&gt;4999876448</title>
<path d="M109,-511.4551C109,-503.3828 109,-493.6764 109,-484.6817" fill="none" stroke="#000000"/>
<polygon fill="#000000" points="112.5001,-484.5903 109,-474.5904 105.5001,-484.5904 112.5001,-484.5903" stroke="#000000"/>
</g>
<!-- 4999875888 -->
<g class="node" id="node3">
<title>4999875888</title>
<polygon fill="none" points="56,-365.5 56,-401.5 162,-401.5 162,-365.5 56,-365.5" stroke="#000000"/>
<text fill="#000000" font-family="Times,serif" font-size="14.00" text-anchor="middle" x="109" y="-379.8">conv0: Conv2D</text>
</g>
<!-- 4999876448&#45;&gt;4999875888 -->
<g class="edge" id="edge2">
<title>4999876448-&gt;4999875888</title>
<path d="M109,-438.4551C109,-430.3828 109,-420.6764 109,-411.6817" fill="none" stroke="#000000"/>
<polygon fill="#000000" points="112.5001,-411.5903 109,-401.5904 105.5001,-411.5904 112.5001,-411.5903" stroke="#000000"/>
</g>
<!-- 4716227552 -->
<g class="node" id="node4">
<title>4716227552</title>
<polygon fill="none" points="30,-292.5 30,-328.5 188,-328.5 188,-292.5 30,-292.5" stroke="#000000"/>
<text fill="#000000" font-family="Times,serif" font-size="14.00" text-anchor="middle" x="109" y="-306.8">bn0: BatchNormalization</text>
</g>
<!-- 4999875888&#45;&gt;4716227552 -->
<g class="edge" id="edge3">
<title>4999875888-&gt;4716227552</title>
<path d="M109,-365.4551C109,-357.3828 109,-347.6764 109,-338.6817" fill="none" stroke="#000000"/>
<polygon fill="#000000" points="112.5001,-338.5903 109,-328.5904 105.5001,-338.5904 112.5001,-338.5903" stroke="#000000"/>
</g>
<!-- 4716227048 -->
<g class="node" id="node5">
<title>4716227048</title>
<polygon fill="none" points="33,-219.5 33,-255.5 185,-255.5 185,-219.5 33,-219.5" stroke="#000000"/>
<text fill="#000000" font-family="Times,serif" font-size="14.00" text-anchor="middle" x="109" y="-233.8">activation_1: Activation</text>
</g>
<!-- 4716227552&#45;&gt;4716227048 -->
<g class="edge" id="edge4">
<title>4716227552-&gt;4716227048</title>
<path d="M109,-292.4551C109,-284.3828 109,-274.6764 109,-265.6817" fill="none" stroke="#000000"/>
<polygon fill="#000000" points="112.5001,-265.5903 109,-255.5904 105.5001,-265.5904 112.5001,-265.5903" stroke="#000000"/>
</g>
<!-- 5000058696 -->
<g class="node" id="node6">
<title>5000058696</title>
<polygon fill="none" points="26,-146.5 26,-182.5 192,-182.5 192,-146.5 26,-146.5" stroke="#000000"/>
<text fill="#000000" font-family="Times,serif" font-size="14.00" text-anchor="middle" x="109" y="-160.8">max_pool: MaxPooling2D</text>
</g>
<!-- 4716227048&#45;&gt;5000058696 -->
<g class="edge" id="edge5">
<title>4716227048-&gt;5000058696</title>
<path d="M109,-219.4551C109,-211.3828 109,-201.6764 109,-192.6817" fill="none" stroke="#000000"/>
<polygon fill="#000000" points="112.5001,-192.5903 109,-182.5904 105.5001,-192.5904 112.5001,-192.5903" stroke="#000000"/>
</g>
<!-- 4446491984 -->
<g class="node" id="node7">
<title>4446491984</title>
<polygon fill="none" points="53,-73.5 53,-109.5 165,-109.5 165,-73.5 53,-73.5" stroke="#000000"/>
<text fill="#000000" font-family="Times,serif" font-size="14.00" text-anchor="middle" x="109" y="-87.8">flatten_1: Flatten</text>
</g>
<!-- 5000058696&#45;&gt;4446491984 -->
<g class="edge" id="edge6">
<title>5000058696-&gt;4446491984</title>
<path d="M109,-146.4551C109,-138.3828 109,-128.6764 109,-119.6817" fill="none" stroke="#000000"/>
<polygon fill="#000000" points="112.5001,-119.5903 109,-109.5904 105.5001,-119.5904 112.5001,-119.5903" stroke="#000000"/>
</g>
<!-- 4447054704 -->
<g class="node" id="node8">
<title>4447054704</title>
<polygon fill="none" points="74,-.5 74,-36.5 144,-36.5 144,-.5 74,-.5" stroke="#000000"/>
<text fill="#000000" font-family="Times,serif" font-size="14.00" text-anchor="middle" x="109" y="-14.8">fc: Dense</text>
</g>
<!-- 4446491984&#45;&gt;4447054704 -->
<g class="edge" id="edge7">
<title>4446491984-&gt;4447054704</title>
<path d="M109,-73.4551C109,-65.3828 109,-55.6764 109,-46.6817" fill="none" stroke="#000000"/>
<polygon fill="#000000" points="112.5001,-46.5903 109,-36.5904 105.5001,-46.5904 112.5001,-46.5903" stroke="#000000"/>
</g>
</g>
</svg>