<svg version='1.1' baseProfile='full' xmlns='http://www.w3.org/2000/svg' width='1177.9375' height='129.9375'><g transform='translate(5, 5)'><g transform='scale(1) translate(19.9375, -50)'><g><g><polyline points="20,100 32,100 44,100 " style="fill: none; stroke: black;"></polyline><g transform="translate(30, 105)"><text text-anchor="start" y="3" transform="rotate(90)" font-size="12">100x100</text></g></g><g transform="translate(-14, 105)"><text text-anchor="start" y="3" transform="rotate(90)" font-size="12">100x100</text></g></g><g><g><polyline points="64,100 76,100 88,100 " style="fill: none; stroke: black;"></polyline><g transform="translate(74, 105)"><text text-anchor="start" y="3" transform="rotate(90)" font-size="12">100x100</text></g></g></g><g><g><polyline points="108,100 120,100 132,100 " style="fill: none; stroke: black;"></polyline><g transform="translate(118, 105)"><text text-anchor="start" y="3" transform="rotate(90)" font-size="12">50x50</text></g></g></g><g><g><polyline points="172,100 184,100 196,100 " style="fill: none; stroke: black;"></polyline><g transform="translate(182, 105)"><text text-anchor="start" y="3" transform="rotate(90)" font-size="12">50x50</text></g></g></g><g><g><polyline points="236,100 248,100 260,100 " style="fill: none; stroke: black;"></polyline><g transform="translate(246, 105)"><text text-anchor="start" y="3" transform="rotate(90)" font-size="12">50x50</text></g></g></g><g><g><polyline points="300,100 312,100 324,100 " style="fill: none; stroke: black;"></polyline><g transform="translate(310, 105)"><text text-anchor="start" y="3" transform="rotate(90)" font-size="12">50x50</text></g></g></g><g><g><polyline points="364,100 376,100 388,100 " style="fill: none; stroke: black;"></polyline><g transform="translate(374, 105)"><text text-anchor="start" y="3" transform="rotate(90)" font-size="12">25x25</text></g></g></g><g><g><polyline points="428,100 440,100 452,100 " style="fill: none; stroke: black;"></polyline><g transform="translate(438, 105)"><text text-anchor="start" y="3" transform="rotate(90)" font-size="12">25x25</text></g></g></g><g><g><polyline points="492,100 504,100 516,100 " style="fill: none; stroke: black;"></polyline><g transform="translate(502, 105)"><text text-anchor="start" y="3" transform="rotate(90)" font-size="12">25x25</text></g></g></g><g><g><polyline points="556,100 568,100 580,100 " style="fill: none; stroke: black;"></polyline><g transform="translate(566, 105)"><text text-anchor="start" y="3" transform="rotate(90)" font-size="12">13x13</text></g></g></g><g><g><polyline points="660,100 672,100 684,100 " style="fill: none; stroke: black;"></polyline><g transform="translate(670, 105)"><text text-anchor="start" y="3" transform="rotate(90)" font-size="12">13x13</text></g></g></g><g><g><polyline points="764,100 776,100 788,100 " style="fill: none; stroke: black;"></polyline><g transform="translate(774, 105)"><text text-anchor="start" y="3" transform="rotate(90)" font-size="12">13x13</text></g></g></g><g><g><polyline points="868,100 880,100 892,100 " style="fill: none; stroke: black;"></polyline><g transform="translate(878, 105)"><text text-anchor="start" y="3" transform="rotate(90)" font-size="12">13x13</text></g></g></g><g><g><polyline points="972,100 984,100 996,100 " style="fill: none; stroke: black;"></polyline><g transform="translate(982, 105)"><text text-anchor="start" y="3" transform="rotate(90)" font-size="12">7x7</text></g></g></g><g><g><polyline points="1016,100 1028,100 1040,100 " style="fill: none; stroke: black;"></polyline></g></g><g><g><polyline points="1060,100 1072,100 1084,100 " style="fill: none; stroke: black;"></polyline></g></g><g><g><polyline points="1104,100 1116,100 1128,100 " style="fill: none; stroke: black;"></polyline></g></g><g></g><g><g transform="translate(0, 50)"><path d="M 0 0 L 20 0 V 100 L 0 100 V 0 z" style="fill: rgb(33, 150, 243); stroke: rgb(12, 124, 213); stroke-width: 4px; stroke-linejoin: round;"></path><g></g><text text-anchor="middle" x="10" y="117" font-size="12">32</text></g></g><g><g transform="translate(44, 50)"><path d="M 0 0 L 20 0 V 100 L 0 100 V 0 z" style="fill: rgb(139, 195, 74); stroke: rgb(113, 164, 54); stroke-width: 4px; stroke-linejoin: round;"></path><g></g><text text-anchor="middle" x="10" y="117" font-size="12">32</text></g></g><g><g transform="translate(88, 50)"><path d="M 0 0 L 20 18.817204301075268 V 81.18279569892474 L 0 100 V 0 z" style="fill: rgb(244, 67, 54); stroke: rgb(234, 28, 13); stroke-width: 4px; stroke-linejoin: round;"></path><g></g><text text-anchor="middle" x="10" y="117" font-size="12">32</text></g></g><g><g transform="translate(132, 50)"><path d="M 0 18.817204301075268 L 40 18.817204301075268 V 81.18279569892474 L 0 81.18279569892474 V 18.817204301075268 z" style="fill: rgb(33, 150, 243); stroke: rgb(12, 124, 213); stroke-width: 4px; stroke-linejoin: round;"></path><g></g><text text-anchor="middle" x="20" y="98.18279569892474" font-size="12">64</text></g></g><g><g transform="translate(196, 50)"><path d="M 0 18.817204301075268 L 40 18.817204301075268 V 81.18279569892474 L 0 81.18279569892474 V 18.817204301075268 z" style="fill: rgb(121, 85, 72); stroke: rgb(89, 63, 53); stroke-width: 4px; stroke-linejoin: round;"></path><g></g><text text-anchor="middle" x="20" y="98.18279569892474" font-size="12">64</text></g></g><g><g transform="translate(260, 50)"><path d="M 0 18.817204301075268 L 40 18.817204301075268 V 81.18279569892474 L 0 81.18279569892474 V 18.817204301075268 z" style="fill: rgb(139, 195, 74); stroke: rgb(113, 164, 54); stroke-width: 4px; stroke-linejoin: round;"></path><g></g><text text-anchor="middle" x="20" y="98.18279569892474" font-size="12">64</text></g></g><g><g transform="translate(324, 50)"><path d="M 0 18.817204301075268 L 40 28.225806451612904 V 71.7741935483871 L 0 81.18279569892474 V 18.817204301075268 z" style="fill: rgb(244, 67, 54); stroke: rgb(234, 28, 13); stroke-width: 4px; stroke-linejoin: round;"></path><g></g><text text-anchor="middle" x="20" y="98.18279569892474" font-size="12">64</text></g></g><g><g transform="translate(388, 50)"><path d="M 0 28.225806451612904 L 40 28.225806451612904 V 71.7741935483871 L 0 71.7741935483871 V 28.225806451612904 z" style="fill: rgb(33, 150, 243); stroke: rgb(12, 124, 213); stroke-width: 4px; stroke-linejoin: round;"></path><g></g><text text-anchor="middle" x="20" y="88.7741935483871" font-size="12">64</text></g></g><g><g transform="translate(452, 50)"><path d="M 0 28.225806451612904 L 40 28.225806451612904 V 71.7741935483871 L 0 71.7741935483871 V 28.225806451612904 z" style="fill: rgb(139, 195, 74); stroke: rgb(113, 164, 54); stroke-width: 4px; stroke-linejoin: round;"></path><g></g><text text-anchor="middle" x="20" y="88.7741935483871" font-size="12">64</text></g></g><g><g transform="translate(516, 50)"><path d="M 0 28.225806451612904 L 40 32.74193548387097 V 67.25806451612902 L 0 71.7741935483871 V 28.225806451612904 z" style="fill: rgb(244, 67, 54); stroke: rgb(234, 28, 13); stroke-width: 4px; stroke-linejoin: round;"></path><g></g><text text-anchor="middle" x="20" y="88.7741935483871" font-size="12">64</text></g></g><g><g transform="translate(580, 50)"><path d="M 0 32.74193548387097 L 80 32.74193548387097 V 67.25806451612902 L 0 67.25806451612902 V 32.74193548387097 z" style="fill: rgb(33, 150, 243); stroke: rgb(12, 124, 213); stroke-width: 4px; stroke-linejoin: round;"></path><g></g><text text-anchor="middle" x="40" y="84.25806451612902" font-size="12">128</text></g></g><g><g transform="translate(684, 50)"><path d="M 0 32.74193548387097 L 80 32.74193548387097 V 67.25806451612902 L 0 67.25806451612902 V 32.74193548387097 z" style="fill: rgb(121, 85, 72); stroke: rgb(89, 63, 53); stroke-width: 4px; stroke-linejoin: round;"></path><g></g><text text-anchor="middle" x="40" y="84.25806451612902" font-size="12">128</text></g></g><g><g transform="translate(788, 50)"><path d="M 0 32.74193548387097 L 80 32.74193548387097 V 67.25806451612902 L 0 67.25806451612902 V 32.74193548387097 z" style="fill: rgb(139, 195, 74); stroke: rgb(113, 164, 54); stroke-width: 4px; stroke-linejoin: round;"></path><g></g><text text-anchor="middle" x="40" y="84.25806451612902" font-size="12">128</text></g></g><g><g transform="translate(892, 50)"><path d="M 0 32.74193548387097 L 80 35 V 65 L 0 67.25806451612902 V 32.74193548387097 z" style="fill: rgb(244, 67, 54); stroke: rgb(234, 28, 13); stroke-width: 4px; stroke-linejoin: round;"></path><g></g><text text-anchor="middle" x="40" y="84.25806451612902" font-size="12">128</text></g></g><g><g transform="translate(996, 50)"><path d="M 0 0 L 20 0 V 100 L 0 100 V 0 z" style="fill: rgb(255, 235, 59); stroke: rgb(255, 235, 59); stroke-width: 4px; stroke-linejoin: round;"></path><g></g><text text-anchor="middle" x="10" y="117" font-size="12">6272</text></g></g><g><g transform="translate(1040, 50)"><path d="M 0 0 L 20 0 V 100 L 0 100 V 0 z" style="fill: rgb(156, 39, 176); stroke: rgb(156, 39, 176); stroke-width: 4px; stroke-linejoin: round;"></path><g></g><text text-anchor="middle" x="10" y="117" font-size="12">128</text></g></g><g><g transform="translate(1084, 50)"><path d="M 0 0 L 20 0 V 100 L 0 100 V 0 z" style="fill: rgb(121, 85, 72); stroke: rgb(121, 85, 72); stroke-width: 4px; stroke-linejoin: round;"></path><g></g><text text-anchor="middle" x="10" y="117" font-size="12">128</text></g></g><g><g transform="translate(1128, 50)"><path d="M 0 35 L 20 35 V 65 L 0 65 V 35 z" style="fill: rgb(156, 39, 176); stroke: rgb(156, 39, 176); stroke-width: 4px; stroke-linejoin: round;"></path><g></g><text text-anchor="middle" x="10" y="82" font-size="12">1</text></g></g></g></g></svg>